name C:\Users\antoi\Documents\MyRepositories\upper-imu-dc\Results\main_tracking\Case_81\kinematics.mot
datacolumns 10
datarows 18
range 2.07000000 2.24000000
endheader 
time	clav_prot	clav_elev	scapula_abduction	scapula_elevation	scapula_upward_rot	scapula_winging	plane_elv	shoulder_elv	axial_rot	
          2.07000000	        -39.54541885	        -29.35546457	        -41.01500177	        -24.18736709	          7.71045532	         22.31289134	         89.96540767	         87.18816323	          0.28104914	
          2.08000000	        -39.77369759	        -29.43204575	        -41.12413291	        -24.37378562	          8.17196963	         22.28204116	         89.98224260	         87.65913239	          0.10991495	
          2.09000000	        -39.99870918	        -29.50411836	        -41.22684869	        -24.55461515	          8.63152876	         22.24655832	         89.99249299	         88.13039073	         -0.06022825	
          2.10000000	        -40.22068440	        -29.57136681	        -41.32402595	        -24.72945339	          9.08841722	         22.20605714	         89.99776744	         88.60203447	         -0.22983800	
          2.11000000	        -40.43993015	        -29.63345478	        -41.41663328	        -24.89790717	          9.54199160	         22.16008437	         89.99972464	         89.07418453	         -0.39925767	
          2.12000000	        -40.65683148	        -29.69006346	        -41.50570751	        -25.05963429	          9.99171962	         22.10815876	         89.99999401	         89.54696224	         -0.56870646	
          2.13000000	        -40.87177851	        -29.74097249	        -41.59217417	        -25.21442908	         10.43726938	         22.04988527	         89.99989230	         90.02046642	         -0.73827330	
          2.14000000	        -41.08511367	        -29.78635919	        -41.67656977	        -25.36254474	         10.87880895	         21.98530614	         89.99977451	         90.49463712	         -0.90792486	
          2.15000000	        -41.29718399	        -29.82649131	        -41.75932696	        -25.50434798	         11.31667367	         21.91455400	         89.99969535	         90.96937547	         -1.07752405	
          2.16000000	        -41.50838050	        -29.86163011	        -41.84091719	        -25.64020689	         11.75123807	         21.83773376	         89.99967150	         91.44457601	         -1.24685970	
          2.17000000	        -41.71913343	        -29.89203091	        -41.92186617	        -25.77048240	         12.18287693	         21.75492708	         89.99969964	         91.92013033	         -1.41567746	
          2.18000000	        -41.92990240	        -29.91794890	        -42.00275983	        -25.89552543	         12.61192947	         21.66620510	         89.99976122	         92.39592984	         -1.58371456	
          2.19000000	        -42.14116694	        -29.93964488	        -42.08425099	        -26.01567427	         13.03866463	         21.57164104	         89.99983163	         92.87186753	         -1.75073048	
          2.20000000	        -42.35341768	        -29.95739098	        -42.16706267	        -26.13125411	         13.46325410	         21.47132219	         89.99988974	         93.34783743	         -1.91653162	
          2.21000000	        -42.56714791	        -29.97147696	        -42.25198656	        -26.24257903	         13.88575493	         21.36536182	         89.99992541	         93.82373120	         -2.08098775	
          2.22000000	        -42.78284577	        -29.98221828	        -42.33987566	        -26.34995815	         14.30610323	         21.25391230	         89.99994067	         94.29943159	         -2.24404066	
          2.23000000	        -43.00098835	        -29.98996738	        -42.43163401	        -26.45370651	         14.72411778	         21.13718068	         89.99994370	         94.77480265	         -2.40570622	
          2.24000000	        -43.22203944	        -29.99512619	        -42.52820923	        -26.55415796	         15.13950815	         21.01544411	         89.99994119	         95.24967893	         -2.56607217	
